<?xml version="1.0" encoding="UTF-8" standalone="no"?>
<svg
   xmlns:dc="http://purl.org/dc/elements/1.1/"
   xmlns:cc="http://creativecommons.org/ns#"
   xmlns:rdf="http://www.w3.org/1999/02/22-rdf-syntax-ns#"
   xmlns:svg="http://www.w3.org/2000/svg"
   xmlns="http://www.w3.org/2000/svg"
   xmlns:sodipodi="http://sodipodi.sourceforge.net/DTD/sodipodi-0.dtd"
   xmlns:inkscape="http://www.inkscape.org/namespaces/inkscape"
   id="g"
   width="64"
   height="64"
   version="1.1"
   sodipodi:docname="isoconstructor.svg"
   inkscape:export-filename=""
   inkscape:export-xdpi="768"
   inkscape:export-ydpi="768"
   inkscape:version="1.0.1 (3bc2e813f5, 2020-09-07)">
  <sodipodi:namedview
     pagecolor="#ffffff"
     bordercolor="#666666"
     borderopacity="1"
     objecttolerance="10"
     gridtolerance="10"
     guidetolerance="10"
     inkscape:pageopacity="0"
     inkscape:pageshadow="2"
     inkscape:window-width="1920"
     inkscape:window-height="1007"
     id="namedview9"
     showgrid="false"
     inkscape:zoom="4.5336893"
     inkscape:cx="8"
     inkscape:cy="8.7351013"
     inkscape:window-x="0"
     inkscape:window-y="0"
     inkscape:window-maximized="1"
     inkscape:current-layer="g"
     inkscape:document-rotation="0"
     fit-margin-top="0"
     fit-margin-left="0"
     fit-margin-right="0"
     fit-margin-bottom="0" />
  <metadata
     id="a">
    <rdf:RDF>
      <cc:Work
         rdf:about="">
        <dc:format>image/svg+xml</dc:format>
        <dc:type
           rdf:resource="http://purl.org/dc/dcmitype/StillImage" />
        <dc:title />
      </cc:Work>
    </rdf:RDF>
  </metadata>
  <defs
     id="defs4">
    <style
       id="current-color-scheme"
       type="text/css">.ColorScheme-Text {color:#090d11;}.ColorScheme-Background{color:#ffffff;}</style>
  </defs>
  <path
     id="f"
     d="M 28.783344,0 C 12.886708,0 0,13.199642 0,29.482306 c 0,16.282663 12.886708,29.482306 28.783344,29.482306 15.896637,0 28.783345,-13.199643 28.783345,-29.482306 C 57.566689,13.199642 44.679981,0 28.783344,0 Z m -8.514139,6.5247279 5.502572,14.6385811 c -0.498037,0.192977 -1.00959,0.377564 -1.460117,0.654445 L 15.510822,8.9616947 c 1.482233,-1.0093548 3.068907,-1.7808442 4.758383,-2.4369668 z m -6.761999,3.9761701 9.344337,12.344669 c -1.39909,1.313504 -2.309974,3.142173 -2.646231,5.141165 L 5.1179856,25.378184 C 6.089895,19.397987 9.133409,14.19809 13.507206,10.500898 Z m 15.276138,14.786251 c 2.262055,0 4.0957,1.878172 4.0957,4.195157 0,2.316985 -1.833645,4.195157 -4.0957,4.195157 -2.262054,0 -4.095699,-1.878172 -4.095699,-4.195157 0,-2.316985 1.833645,-4.195157 4.095699,-4.195157 z M 46.799121,34.170317 64,37.256758 c -0.242834,6.617185 -4.123538,14.675428 -8.497335,18.37262 L 41.84448,42.157642 c 2.423302,-1.94595 4.287922,-4.628879 4.954641,-7.987325 z m -7.089943,9.454765 12.345109,14.666085 C 49.928403,60.966708 47.098471,62.755339 43.696911,64 L 35.943327,45.689414 c 1.421274,-0.280781 2.914235,-1.088601 3.765851,-2.064332 z"
     style="fill:#ff7400;fill-opacity:1;stroke-width:4.14512"
     class="ColorScheme-Text"
     sodipodi:nodetypes="sssssccccccccccssssscccccccccc" />
</svg>
